<?xml version="1.0" standalone="no"?>
<!DOCTYPE svg PUBLIC "-//W3C//DTD SVG 20010904//EN"
 "http://www.w3.org/TR/2001/REC-SVG-20010904/DTD/svg10.dtd">
<svg version="1.0" xmlns="http://www.w3.org/2000/svg"
 width="512.000000pt" height="512.000000pt" viewBox="0 0 512.000000 512.000000"
 preserveAspectRatio="xMidYMid meet">
<metadata>
Created by potrace 1.11, written by Peter Selinger 2001-2013
</metadata>
<g transform="translate(0.000000,512.000000) scale(0.100000,-0.100000)"
fill="#000000" stroke="none">
<path d="M2409 4436 c-2 -2 -33 -6 -69 -9 -165 -15 -387 -75 -555 -152 -247
-112 -480 -295 -700 -550 -53 -61 -165 -234 -209 -323 -80 -158 -139 -333
-165 -487 -6 -33 -13 -73 -16 -90 -11 -52 -13 -407 -4 -485 37 -297 133 -559
290 -796 83 -125 221 -286 319 -374 40 -36 80 -72 89 -80 40 -36 134 -101 226
-156 207 -124 418 -198 665 -235 95 -15 411 -18 510 -6 422 51 782 231 1100
547 244 243 398 501 483 810 50 181 65 313 62 540 -3 257 -39 447 -122 655
-167 418 -518 803 -915 1001 -256 129 -485 183 -799 190 -102 2 -188 2 -190 0z
m366 -159 c11 -2 43 -8 70 -11 266 -37 590 -189 831 -391 333 -279 546 -673
591 -1095 10 -93 10 -366 0 -439 -52 -375 -229 -731 -498 -1000 -277 -276
-594 -435 -970 -485 -101 -13 -425 -15 -479 -2 -13 3 -42 8 -64 12 -21 3 -82
16 -135 30 -473 120 -901 467 -1120 910 -88 178 -129 323 -160 559 -9 70 -7
378 2 425 3 14 8 41 11 60 3 19 8 46 11 60 3 14 8 41 11 60 4 19 24 86 46 149
153 444 487 819 911 1019 72 34 252 97 302 105 17 3 54 10 84 16 30 6 84 14
120 17 36 4 68 8 70 10 6 6 340 -3 366 -9z"/>
<path d="M1785 3266 c-5 -2 -30 -9 -55 -17 -143 -41 -251 -171 -267 -319 -9
-89 30 -140 94 -124 31 8 51 44 58 101 21 159 130 229 311 198 78 -13 146 -98
158 -197 9 -66 14 -77 47 -93 37 -20 43 -19 77 10 28 24 30 30 28 83 -3 71
-20 123 -61 187 -69 109 -165 164 -297 170 -46 3 -87 3 -93 1z"/>
<path d="M3162 3255 c-65 -18 -146 -69 -191 -120 -97 -110 -119 -293 -40 -325
55 -23 96 16 106 98 15 136 116 217 257 205 122 -11 196 -83 210 -207 8 -64
20 -82 63 -97 35 -11 38 -10 65 20 33 36 35 69 13 154 -26 99 -103 200 -188
243 -79 42 -204 54 -295 29z"/>
<path d="M1343 2478 c-35 -17 -46 -58 -39 -150 3 -46 8 -94 11 -108 3 -14 9
-48 14 -77 15 -77 56 -194 100 -281 80 -159 174 -280 336 -429 32 -30 184
-126 244 -154 178 -84 352 -119 571 -114 150 3 174 6 275 31 417 104 758 414
891 811 50 149 78 374 55 432 -17 39 -61 58 -99 42 -40 -17 -50 -39 -57 -131
-4 -46 -8 -90 -10 -99 -1 -9 -6 -36 -10 -61 -25 -153 -141 -378 -266 -514
-120 -132 -202 -194 -344 -261 -285 -135 -641 -132 -923 6 -308 152 -540 434
-602 732 -18 89 -19 95 -25 185 -7 98 -16 125 -52 141 -29 13 -41 13 -70 -1z"/>
</g>
</svg>
