<?xml version="1.0" standalone="no"?>
<!DOCTYPE svg PUBLIC "-//W3C//DTD SVG 20010904//EN"
 "http://www.w3.org/TR/2001/REC-SVG-20010904/DTD/svg10.dtd">
<svg version="1.0" xmlns="http://www.w3.org/2000/svg"
 width="512.000000pt" height="512.000000pt" viewBox="0 0 512.000000 512.000000"
 preserveAspectRatio="xMidYMid meet">
<metadata>
Created by potrace 1.11, written by Peter Selinger 2001-2013
</metadata>
<g transform="translate(0.000000,512.000000) scale(0.100000,-0.100000)"
fill="#000000" stroke="none">
<path d="M1235 3735 c-221 -45 -398 -138 -573 -300 -204 -189 -325 -418 -371
-700 -13 -77 -7 -333 9 -405 42 -193 129 -380 239 -515 56 -68 214 -214 280
-259 136 -91 321 -163 478 -185 71 -9 322 -7 383 4 77 14 189 48 267 81 l81
35 49 -24 c47 -24 156 -62 204 -73 126 -27 187 -32 319 -29 80 2 159 6 175 9
90 19 198 51 261 77 l72 30 49 -24 c68 -35 200 -75 302 -92 85 -14 322 -14
401 0 428 76 810 412 935 820 38 124 51 212 52 346 3 350 -108 619 -357 869
-179 180 -355 277 -590 326 -89 19 -345 26 -427 12 -94 -16 -181 -40 -263 -73
l-86 -35 -65 29 c-161 73 -312 101 -514 96 -77 -2 -156 -6 -174 -10 -90 -18
-187 -47 -264 -80 l-85 -36 -48 24 c-135 67 -282 99 -479 102 -123 2 -169 -1
-260 -20z m495 -104 c102 -26 194 -62 183 -70 -4 -4 -30 -24 -58 -46 -62 -48
-189 -175 -236 -235 -101 -130 -183 -308 -214 -465 -3 -16 -8 -41 -11 -55 -3
-14 -7 -90 -9 -170 -6 -212 26 -369 113 -550 36 -75 103 -181 141 -222 22 -22
27 -37 14 -39 -5 0 -21 -3 -38 -7 -41 -9 -232 -8 -277 0 -204 40 -405 199
-492 389 -40 88 -54 144 -62 241 -5 56 -11 77 -26 90 -72 63 -100 -45 -58
-220 72 -299 312 -535 609 -595 94 -20 273 -16 363 7 l67 18 70 -61 c39 -33
80 -65 91 -71 11 -6 18 -15 15 -20 -9 -14 -155 -59 -241 -74 -168 -30 -398
-12 -557 43 -333 116 -620 421 -701 746 -26 104 -28 117 -32 265 -4 154 12
272 54 391 133 380 477 672 857 728 101 15 349 5 435 -18z m1100 0 c41 -11
101 -29 133 -41 l57 -21 -62 -46 c-135 -99 -298 -286 -365 -417 l-25 -49 -19
32 c-10 17 -19 34 -19 37 0 3 -26 44 -57 91 -67 101 -200 243 -284 304 -33 23
-56 46 -52 50 12 10 143 56 184 64 107 20 158 23 289 20 100 -3 168 -10 220
-24z m1015 5 c250 -56 414 -142 584 -309 213 -207 319 -463 319 -772 0 -144
-12 -227 -50 -345 -67 -208 -214 -413 -400 -554 -102 -78 -296 -167 -397 -182
-20 -3 -53 -9 -73 -14 -60 -13 -289 -9 -360 5 -36 8 -76 16 -89 19 -22 4 -106
33 -152 51 -14 6 -10 12 25 38 24 17 66 50 94 73 l50 43 60 -16 c83 -23 306
-23 394 0 36 9 111 40 167 68 244 122 410 361 430 620 7 94 0 125 -29 132 -38
10 -68 -18 -68 -64 0 -109 -57 -279 -129 -381 -84 -121 -211 -219 -343 -263
-70 -24 -103 -29 -203 -31 -72 -1 -136 2 -159 9 l-40 12 31 35 c173 200 265
475 259 775 -2 77 -6 149 -8 160 -3 11 -9 40 -13 65 -19 119 -91 287 -180 418
-60 90 -185 225 -262 283 -32 23 -62 46 -67 50 -5 4 7 14 27 23 37 15 191 53
242 59 47 6 307 0 340 -7z m-1767 -158 c168 -113 299 -261 382 -431 28 -56 50
-110 50 -120 0 -11 -6 -45 -14 -76 -25 -98 -28 -123 -31 -277 -3 -146 9 -254
36 -342 8 -25 7 -42 -7 -80 -34 -89 -111 -217 -182 -300 l-28 -34 -75 50 c-41
28 -83 60 -93 71 -18 20 -18 21 13 59 71 91 128 249 140 395 7 75 6 80 -17 98
-31 24 -37 24 -62 -1 -12 -12 -20 -35 -21 -57 -3 -68 -13 -127 -37 -198 -17
-52 -86 -180 -103 -191 -15 -9 -35 21 -78 111 -45 93 -59 147 -67 248 -4 55
-10 76 -26 90 -26 22 -41 22 -63 -3 -14 -15 -18 -34 -16 -81 1 -34 3 -65 5
-68 2 -3 7 -22 10 -43 13 -83 61 -197 117 -280 22 -32 39 -61 39 -65 -1 -12
-99 -88 -145 -112 l-39 -21 -23 22 c-34 32 -116 154 -153 228 -75 148 -101
263 -106 455 -5 221 24 353 117 535 73 142 173 267 291 363 56 45 118 87 130
87 5 0 30 -14 56 -32z m1100 0 c105 -70 216 -176 292 -279 81 -107 165 -304
186 -434 13 -83 16 -274 4 -358 -27 -201 -122 -412 -253 -562 l-34 -40 -54 34
c-30 18 -73 47 -95 64 l-42 32 44 62 c85 117 126 231 142 387 8 73 7 81 -14
105 -19 22 -25 24 -48 13 -14 -6 -27 -22 -30 -34 -2 -13 -11 -68 -19 -122 -12
-80 -25 -118 -61 -190 -25 -50 -55 -102 -66 -116 l-20 -25 -20 25 c-31 40 -87
151 -100 200 -18 66 -20 78 -26 155 -6 70 -25 105 -59 105 -26 0 -48 -40 -47
-83 6 -150 60 -312 146 -431 l35 -49 -47 -38 c-26 -20 -70 -49 -97 -63 l-48
-26 -24 22 c-39 37 -122 163 -165 253 l-41 87 24 116 c32 155 34 383 4 512
-10 47 -19 99 -19 115 0 17 20 68 43 115 93 185 236 346 411 462 35 24 45 22
98 -14z m-611 -975 c-2 -27 -3 -5 -3 47 0 52 1 74 3 48 2 -27 2 -69 0 -95z
m139 -680 c24 -28 31 -44 23 -49 -31 -19 -313 -10 -337 11 -2 1 22 36 52 76
31 40 69 99 86 131 l31 59 56 -93 c31 -51 71 -112 89 -135z m-529 -61 c39 -18
36 -23 -48 -88 -94 -72 -98 -73 -165 -26 -33 22 -74 53 -93 69 l-33 29 58 36
c33 20 74 50 93 66 l35 29 60 -50 c34 -27 76 -56 93 -65z m1003 44 c39 -30 79
-58 90 -61 11 -4 20 -10 20 -15 0 -16 -158 -130 -180 -130 -13 0 -110 66 -159
107 l-34 29 59 34 c32 18 75 46 94 61 19 16 36 29 37 29 2 0 34 -24 73 -54z
m-765 -131 c76 -17 280 -12 352 8 49 14 53 14 70 -6 10 -11 51 -46 91 -79 84
-66 87 -58 -45 -97 -196 -59 -447 -53 -653 15 -107 35 -107 35 -58 72 24 17
63 49 88 71 35 32 50 39 70 35 14 -3 52 -12 85 -19z"/>
<path d="M960 3001 c-108 -35 -180 -126 -180 -227 0 -31 25 -64 48 -64 22 0
52 40 52 68 0 72 68 132 150 132 76 0 134 -49 144 -120 8 -65 30 -89 68 -75
70 27 14 198 -84 258 -50 31 -147 45 -198 28z"/>
<path d="M4030 2988 c-108 -31 -179 -134 -171 -250 1 -22 36 -41 60 -33 21 6
29 22 37 74 3 20 15 48 26 63 75 107 268 56 268 -69 0 -34 29 -73 53 -73 24 0
47 35 47 72 0 51 -53 148 -97 179 -65 46 -146 59 -223 37z"/>
<path d="M1843 2996 c-48 -15 -97 -54 -130 -100 -45 -64 -48 -164 -5 -181 38
-14 60 10 69 75 9 62 68 120 122 120 19 0 19 -1 0 -50 -24 -64 -24 -112 -1
-133 10 -10 24 -17 30 -17 23 0 52 40 52 71 0 35 28 89 47 89 17 0 43 -53 43
-90 0 -17 9 -39 20 -50 60 -60 103 29 61 125 -11 26 -21 49 -21 51 0 13 52 0
81 -19 38 -26 56 -56 65 -113 14 -88 99 -83 96 6 -4 87 -63 174 -145 210 -33
15 -57 18 -117 14 -89 -6 -89 -6 -165 1 -37 3 -76 0 -102 -9z"/>
<path d="M2960 3004 c-120 -47 -177 -117 -182 -224 -2 -45 27 -76 62 -65 19 6
46 68 36 83 -8 14 42 81 74 97 51 26 60 20 37 -25 -29 -60 -34 -126 -12 -150
10 -11 24 -20 32 -20 23 0 53 39 53 68 0 36 26 89 50 102 14 8 21 4 35 -17 10
-14 20 -42 22 -62 10 -70 47 -99 84 -65 23 21 24 58 3 120 -18 53 -15 60 18
44 53 -28 75 -61 84 -125 2 -16 12 -38 23 -49 17 -17 24 -18 46 -8 51 23 27
148 -43 219 -52 54 -88 67 -187 70 -49 1 -119 4 -155 7 -36 3 -72 3 -80 0z"/>
</g>
</svg>
